<svg xmlns="http://www.w3.org/2000/svg" viewBox="0 0 64 64">
  <rect width="64" height="64" rx="14" fill="#f7f4ed"/>
  <rect x="2.5" y="2.5" width="59" height="59" rx="12" fill="none" stroke="#d8d1c1" stroke-width="2"/>
  <path d="M17.5 16.5 41 11.8a5 5 0 0 1 5.9 3.9l5.1 25.6a5 5 0 0 1-3.9 5.9L24.6 52a5 5 0 0 1-5.9-3.9l-5.1-25.6a5 5 0 0 1 3.9-5.9Z" fill="#e7efe8" stroke="#2f5947" stroke-width="2.5"/>
  <path d="M22.4 21.1h23.2a5 5 0 0 1 5 5v23.2a5 5 0 0 1-5 5H22.4a5 5 0 0 1-5-5V26.1a5 5 0 0 1 5-5Z" fill="#fffefa" stroke="#27332d" stroke-width="2.7"/>
  <path d="M25.7 30.4h14.6M25.7 37.4h13.2M25.7 44.4h8.8" stroke="#2f5947" stroke-width="3.2" stroke-linecap="round"/>
  <circle cx="24" cy="19" r="4.2" fill="#3f6f5a" stroke="#27332d" stroke-width="1.6"/>
  <path d="M48 13v4M48 23v4M38 20h4M54 20h4" stroke="#c28a2c" stroke-width="2.5" stroke-linecap="round"/>
</svg>
